<svg width="64" height="64" viewBox="0 0 64 64" fill="none" xmlns="http://www.w3.org/2000/svg">
<path d="M9.5 30C11.0137 30 12.3887 29.3979 13.4009 28.4219L18.9194 31.1812C18.8911 31.4087 18.875 31.6396 18.875 31.875C18.875 34.9766 21.3984 37.5 24.5 37.5C27.6016 37.5 30.125 34.9766 30.125 31.875C30.125 31.0078 29.9272 30.1855 29.5752 29.4512L37.0762 21.9502C37.8105 22.3022 38.6328 22.5 39.5 22.5C42.6016 22.5 45.125 19.9766 45.125 16.875C45.125 16.2891 45.0347 15.7241 44.8677 15.1929L51.3843 10.3057C52.2769 10.9019 53.3481 11.25 54.5 11.25C57.6016 11.25 60.125 8.72656 60.125 5.625C60.125 2.52344 57.6016 0 54.5 0C51.3984 0 48.875 2.52344 48.875 5.625C48.875 6.21094 48.9653 6.77588 49.1323 7.30713L42.6157 12.1943C41.7231 11.5981 40.6519 11.25 39.5 11.25C36.3984 11.25 33.875 13.7734 33.875 16.875C33.875 17.7422 34.0728 18.5645 34.4248 19.2988L26.9238 26.7998C26.1895 26.4478 25.3672 26.25 24.5 26.25C22.9863 26.25 21.6113 26.8521 20.5991 27.8281L15.0806 25.0688C15.1089 24.8413 15.125 24.6104 15.125 24.375C15.125 21.2734 12.6016 18.75 9.5 18.75C6.39844 18.75 3.875 21.2734 3.875 24.375C3.875 27.4766 6.39844 30 9.5 30ZM54.5 3.75C55.5337 3.75 56.375 4.59131 56.375 5.625C56.375 6.65869 55.5337 7.5 54.5 7.5C53.4663 7.5 52.625 6.65869 52.625 5.625C52.625 4.59131 53.4663 3.75 54.5 3.75ZM39.5 15C40.5337 15 41.375 15.8413 41.375 16.875C41.375 17.9087 40.5337 18.75 39.5 18.75C38.4663 18.75 37.625 17.9087 37.625 16.875C37.625 15.8413 38.4663 15 39.5 15ZM24.5 30C25.5337 30 26.375 30.8413 26.375 31.875C26.375 32.9087 25.5337 33.75 24.5 33.75C23.4663 33.75 22.625 32.9087 22.625 31.875C22.625 30.8413 23.4663 30 24.5 30ZM9.5 22.5C10.5337 22.5 11.375 23.3413 11.375 24.375C11.375 25.4087 10.5337 26.25 9.5 26.25C8.46631 26.25 7.625 25.4087 7.625 24.375C7.625 23.3413 8.46631 22.5 9.5 22.5Z" fill="#6312FF"/>
<path d="M62.125 60.25H60.125V20.625C60.125 19.5894 59.2856 18.75 58.25 18.75H50.75C49.7144 18.75 48.875 19.5894 48.875 20.625V60.25H45.125V31.875C45.125 30.8394 44.2856 30 43.25 30H35.75C34.7144 30 33.875 30.8394 33.875 31.875V60.25H30.125V46.875C30.125 45.8394 29.2856 45 28.25 45H20.75C19.7144 45 18.875 45.8394 18.875 46.875V60.25H15.125V39.375C15.125 38.3394 14.2856 37.5 13.25 37.5H5.75C4.71436 37.5 3.875 38.3394 3.875 39.375V60.25H1.875C0.839355 60.25 0 61.0894 0 62.125C0 63.1606 0.839355 64 1.875 64H62.125C63.1606 64 64 63.1606 64 62.125C64 61.0894 63.1606 60.25 62.125 60.25ZM52.625 22.5H56.375V60.25H52.625V22.5ZM37.625 33.75H41.375V60.25H37.625V33.75ZM22.625 48.75H26.375V60.25H22.625V48.75ZM7.625 41.25H11.375V60.25H7.625V41.25Z" fill="#6312FF"/>
</svg>
