<svg width="74" height="68" viewBox="0 0 74 68" fill="none" xmlns="http://www.w3.org/2000/svg">
<path d="M59.8309 17.7602C59.0443 13.0857 56.7297 8.81958 53.1898 5.5822C49.2565 1.98176 44.1433 0 38.8182 0C34.7034 0 30.6945 1.17998 27.2605 3.40378C24.4013 5.24939 22.0263 7.7455 20.3471 10.6803C19.6209 10.5442 18.8645 10.4685 18.1081 10.4685C11.6788 10.4685 6.44449 15.7028 6.44449 22.1321C6.44449 22.9642 6.53526 23.766 6.68654 24.5526C2.52636 27.5782 0 32.4494 0 37.6383C0 41.8287 1.55818 45.8981 4.40222 49.1204C7.32191 52.4182 11.1795 54.3697 15.2943 54.5967C15.3397 54.5967 15.37 54.5967 15.4153 54.5967H28.4254C29.56 54.5967 30.4676 53.689 30.4676 52.5544C30.4676 51.4198 29.56 50.5121 28.4254 50.5121H15.4759C9.28854 50.1339 4.08454 44.2492 4.08454 37.6231C4.08454 33.3419 6.38398 29.3482 10.0903 27.1849C10.9526 26.6857 11.3157 25.6418 10.9829 24.7039C10.6803 23.887 10.529 23.0247 10.529 22.1019C10.529 17.9266 13.9328 14.5228 18.1081 14.5228C19.0007 14.5228 19.8781 14.6741 20.695 14.9766C21.6934 15.3397 22.7978 14.8859 23.2516 13.9328C26.0805 7.92703 32.1922 4.05428 38.8334 4.05428C47.7588 4.05428 55.1261 10.7408 55.9733 19.6058C56.0641 20.5286 56.76 21.2699 57.6676 21.4211C64.3996 22.5709 69.4825 28.7884 69.4825 35.8834C69.4825 43.402 63.5675 49.9373 56.2759 50.497H45.1266C43.992 50.497 43.0843 51.4047 43.0843 52.5393C43.0843 53.6739 43.992 54.5815 45.1266 54.5815H56.3515C56.3969 54.5815 56.4423 54.5815 56.5028 54.5815C61.1168 54.2487 65.4283 52.1308 68.6354 48.5909C71.8274 45.0812 73.5671 40.5731 73.5671 35.8834C73.5519 27.3967 67.7579 19.8478 59.8309 17.7602Z" fill="#3600AA"/>
<path d="M49.0446 39.5747C49.8464 38.7729 49.8464 37.487 49.0446 36.6853L38.2281 25.8688C37.8499 25.4906 37.3205 25.2637 36.791 25.2637C36.2615 25.2637 35.732 25.4755 35.3538 25.8688L24.5374 36.6853C23.7356 37.487 23.7356 38.7729 24.5374 39.5747C24.9307 39.968 25.4602 40.1798 25.9745 40.1798C26.4889 40.1798 27.0183 39.9831 27.4117 39.5747L34.7487 32.2376V65.9578C34.7487 67.0924 35.6564 68 36.791 68C37.9256 68 38.8333 67.0924 38.8333 65.9578V32.2376L46.1703 39.5747C46.9569 40.3765 48.2428 40.3765 49.0446 39.5747Z" fill="#3600AA"/>
</svg>
