<svg width="70" height="70" viewBox="0 0 70 70" fill="none" xmlns="http://www.w3.org/2000/svg">
<path d="M46.6211 61.7969L57.5586 70V61.7969H70V24.7461H45.2539V0H0V37.0508H12.4414V45.2539L23.3789 37.0508H24.7461V61.7969H46.6211ZM65.8984 57.6953H53.457V61.7969L47.9883 57.6953H28.8477V28.8477H65.8984V57.6953ZM22.0117 32.9492L16.543 37.0508V32.9492H4.10156V4.10156H41.1523V24.7461H32.1658L22.6953 5.80521L12.6577 25.8799L16.3261 27.7144L18.8357 22.6953H26.5549L27.5803 24.7461H24.7461V32.9492H22.0117ZM24.5042 18.5938H20.8865L22.6953 14.976L24.5042 18.5938Z" fill="#3600AA"/>
<path d="M44.4288 46.5399C42.2295 48.392 40.1531 49.3555 39.1016 49.3555V53.457C41.7441 53.457 44.9185 51.5232 47.3047 49.474C49.6909 51.5232 52.8653 53.457 55.5078 53.457V49.3555C54.4563 49.3555 52.3798 48.392 50.1806 46.5399C51.3715 45.0921 52.6244 43.1967 53.1718 41.1523H57.5586V37.0508H49.3555V32.9492H45.2539V37.0508H37.0508V41.1523H41.4375C41.9849 43.1967 43.2378 45.0921 44.4288 46.5399ZM47.3047 43.5743C46.6579 42.7422 46.1431 41.9171 45.7912 41.1507H48.8182C48.4663 41.9171 47.9514 42.7422 47.3047 43.5743Z" fill="#3600AA"/>
</svg>
