<svg width="60" height="60" viewBox="0 0 60 60" fill="none" xmlns="http://www.w3.org/2000/svg">
<g clip-path="url(#clip0)">
<path d="M59.3955 47.0004L52.9275 40.5325C52.9229 40.5278 52.9193 40.5226 52.9146 40.5179C52.9099 40.5132 52.9047 40.5096 52.9003 40.5047L42.834 30.4386L59.3872 13.8853C60.1932 13.0794 60.1932 11.7727 59.3875 10.9671L49.0342 0.611259C48.647 0.224398 48.1223 0.00675471 47.5748 0.00675471C47.5063 0.00675471 47.4383 0.0100565 47.3709 0.0169353C46.8985 0.0637107 46.4544 0.272549 46.1157 0.610984L35.7615 10.9646C35.7601 10.966 35.7593 10.9673 35.7579 10.9687L29.5593 17.167L25.9623 13.5697C25.9618 13.5692 25.9615 13.5689 25.9609 13.5683C25.9604 13.5678 25.9601 13.5675 25.9596 13.567L19.4971 7.10425C19.4911 7.09792 19.4861 7.09131 19.4798 7.08526C19.4737 7.07921 19.4671 7.07425 19.4611 7.0682L12.9989 0.605481C12.612 0.218345 12.0871 0.000976562 11.5398 0.000976562C10.9925 0.000976562 10.4675 0.218345 10.0804 0.605481L0.604504 10.0833C-0.20141 10.8892 -0.201135 12.1959 0.604504 13.0015L17.1647 29.5614L0.604504 46.1213C0.217368 46.5087 0 47.0334 0 47.5807V57.9368C0 58.4841 0.217368 59.0091 0.604504 59.3962C0.99164 59.7831 1.51663 60.0004 2.0639 60.0004L12.4192 59.9985C12.9664 59.9985 13.4909 59.7811 13.878 59.3943L30.4368 42.8352L46.9978 59.3959C47.4006 59.7987 47.9289 60.0002 48.4569 60.0002C48.9849 60.0002 49.5129 59.7987 49.916 59.3959L59.3952 49.9189C59.7824 49.5321 59.9997 49.0071 59.9997 48.4595C60 47.9123 59.7826 47.3876 59.3955 47.0004ZM47.5729 19.861L40.1389 12.4245L47.5742 4.98917L55.0091 12.4259L47.5729 19.861ZM4.98214 11.5421L11.5398 4.98339L15.1016 8.54548L11.8218 11.8261C11.0162 12.6323 11.0162 13.939 11.8221 14.7443C12.2252 15.1474 12.7529 15.3486 13.2812 15.3486C13.8092 15.3486 14.3378 15.1472 14.7406 14.7441L18.0198 11.464L21.583 15.0272L17.0532 19.557C16.2473 20.3629 16.2473 21.6696 17.0532 22.4755C17.4561 22.8786 17.9843 23.08 18.5124 23.08C19.0404 23.08 19.5687 22.8786 19.9715 22.4758L24.5018 17.946L26.6411 20.085L20.0835 26.6429L4.98214 11.5421ZM11.564 55.8715L4.12725 55.8729V48.4356L37.2203 15.3428L44.6552 22.7801L11.564 55.8715ZM48.4572 55.0183L33.3556 39.9167L39.9152 33.3568L42.0547 35.4964L37.5238 40.0273C36.7179 40.8335 36.7179 42.1399 37.5238 42.9458C37.9267 43.3486 38.4549 43.55 38.983 43.55C39.511 43.55 40.0393 43.3486 40.4421 42.9458L44.973 38.4149L48.5359 41.9776L45.2564 45.2573C44.4505 46.0633 44.4505 47.3699 45.2564 48.1756C45.6592 48.5784 46.1875 48.7798 46.7155 48.7798C47.2435 48.7798 47.7718 48.5784 48.1746 48.1753L51.4541 44.8958L55.0173 48.4587L48.4572 55.0183Z" fill="#6312FF"/>
</g>
<defs>
<clipPath id="clip0">
<rect width="60" height="60" fill="white"/>
</clipPath>
</defs>
</svg>
