<svg width="26" height="26" viewBox="0 0 26 26" fill="none" xmlns="http://www.w3.org/2000/svg">
<path d="M18.2542 0H7.7453C3.47439 0 -0.000244141 3.47463 -0.000244141 7.74554V18.2545C-0.000244141 22.5254 3.47439 26 7.7453 26H18.2542C22.5251 26 25.9998 22.5254 25.9998 18.2545V7.74554C25.9997 3.47463 22.5251 0 18.2542 0ZM23.3842 18.2545C23.3842 21.0876 21.0874 23.3844 18.2542 23.3844H7.7453C4.91213 23.3844 2.61535 21.0876 2.61535 18.2545V7.74554C2.61535 4.91233 4.91213 2.6156 7.7453 2.6156H18.2542C21.0874 2.6156 23.3842 4.91233 23.3842 7.74554V18.2545Z" fill="#8766CC"/>
<path d="M12.9998 6.27563C9.29188 6.27563 6.27527 9.29225 6.27527 13.0001C6.27527 16.708 9.29188 19.7246 12.9998 19.7246C16.7077 19.7246 19.7243 16.708 19.7243 13.0001C19.7243 9.2922 16.7077 6.27563 12.9998 6.27563ZM12.9998 17.1091C10.7305 17.1091 8.89087 15.2695 8.89087 13.0002C8.89087 10.7308 10.7305 8.89123 12.9998 8.89123C15.2691 8.89123 17.1087 10.7308 17.1087 13.0002C17.1087 15.2694 15.2691 17.1091 12.9998 17.1091Z" fill="#8766CC"/>
<path d="M19.7373 7.93727C20.6272 7.93727 21.3486 7.21585 21.3486 6.32593C21.3486 5.43602 20.6272 4.7146 19.7373 4.7146C18.8474 4.7146 18.126 5.43602 18.126 6.32593C18.126 7.21585 18.8474 7.93727 19.7373 7.93727Z" fill="#8766CC"/>
</svg>
