<svg width="26" height="26" viewBox="0 0 26 26" fill="none" xmlns="http://www.w3.org/2000/svg">
<path d="M18.2545 0H7.74554C3.47463 0 0 3.47463 0 7.74554V18.2545C0 22.5254 3.47463 26 7.74554 26H18.2545C22.5254 26 26 22.5254 26 18.2545V7.74554C26 3.47463 22.5253 0 18.2545 0ZM23.3844 18.2545C23.3844 21.0876 21.0876 23.3844 18.2545 23.3844H7.74554C4.91238 23.3844 2.6156 21.0876 2.6156 18.2545V7.74554C2.6156 4.91233 4.91238 2.6156 7.74554 2.6156H18.2545C21.0876 2.6156 23.3844 4.91233 23.3844 7.74554V18.2545Z" fill="white"/>
<path d="M12.9999 6.27563C9.29201 6.27563 6.27539 9.29225 6.27539 13.0001C6.27539 16.708 9.29201 19.7246 12.9999 19.7246C16.7078 19.7246 19.7244 16.708 19.7244 13.0001C19.7244 9.2922 16.7078 6.27563 12.9999 6.27563ZM12.9999 17.1091C10.7306 17.1091 8.89099 15.2695 8.89099 13.0002C8.89099 10.7308 10.7306 8.89123 12.9999 8.89123C15.2692 8.89123 17.1088 10.7308 17.1088 13.0002C17.1088 15.2694 15.2692 17.1091 12.9999 17.1091Z" fill="white"/>
<path d="M19.7373 7.93727C20.6272 7.93727 21.3486 7.21585 21.3486 6.32593C21.3486 5.43602 20.6272 4.7146 19.7373 4.7146C18.8474 4.7146 18.126 5.43602 18.126 6.32593C18.126 7.21585 18.8474 7.93727 19.7373 7.93727Z" fill="white"/>
</svg>
