<svg width="26" height="26" viewBox="0 0 26 26" fill="none" xmlns="http://www.w3.org/2000/svg">
<path d="M23.6478 0H2.35167C1.05276 0 -0.000244141 1.053 -0.000244141 2.35191V23.648C-0.000244141 24.947 1.05276 26 2.35167 26H23.6478C24.9468 26 25.9998 24.947 25.9998 23.648V2.35191C25.9998 1.053 24.9468 0 23.6478 0ZM8.04526 22.4501C8.04526 22.8281 7.73884 23.1346 7.36082 23.1346H4.44732C4.0693 23.1346 3.76288 22.8281 3.76288 22.4501V10.2369C3.76288 9.85883 4.0693 9.55241 4.44732 9.55241H7.36082C7.73884 9.55241 8.04526 9.85883 8.04526 10.2369V22.4501ZM5.90407 8.40113C4.37545 8.40113 3.13623 7.16191 3.13623 5.63329C3.13623 4.10466 4.37545 2.86544 5.90407 2.86544C7.43269 2.86544 8.67191 4.10466 8.67191 5.63329C8.67191 7.16191 7.43276 8.40113 5.90407 8.40113ZM23.2711 22.5052C23.2711 22.8528 22.9893 23.1346 22.6418 23.1346H19.5154C19.1679 23.1346 18.8861 22.8528 18.8861 22.5052V16.7765C18.8861 15.9219 19.1368 13.0316 16.6528 13.0316C14.726 13.0316 14.3351 15.01 14.2567 15.8978V22.5052C14.2567 22.8528 13.975 23.1346 13.6274 23.1346H10.6036C10.2561 23.1346 9.97429 22.8528 9.97429 22.5052V10.1817C9.97429 9.83419 10.2561 9.55241 10.6036 9.55241H13.6274C13.9749 9.55241 14.2567 9.83419 14.2567 10.1817V11.2472C14.9711 10.1751 16.0329 9.34748 18.2936 9.34748C23.2998 9.34748 23.2711 14.0245 23.2711 16.5943V22.5052Z" fill="#8766CC"/>
</svg>
