<svg width="146" height="36" viewBox="0 0 146 36" fill="none" xmlns="http://www.w3.org/2000/svg">
<path d="M14.651 4.11963H2.98087C1.33458 4.11963 0 5.45421 0 7.1005V33.0192C0 34.6655 1.33458 36.0001 2.98087 36.0001H14.651C16.2973 36.0001 17.6319 34.6655 17.6319 33.0192V7.1005C17.6319 5.45421 16.2973 4.11963 14.651 4.11963Z" fill="white"/>
<path d="M35.1891 2.08661C35.4262 2.08661 35.6537 2.18083 35.8214 2.34854C35.9891 2.51624 36.0833 2.7437 36.0833 2.98087V28.8966C36.0833 29.1337 35.9891 29.3612 35.8214 29.5289C35.6537 29.6966 35.4262 29.7908 35.1891 29.7908H23.519C23.2818 29.7908 23.0543 29.6966 22.8866 29.5289C22.7189 29.3612 22.6247 29.1337 22.6247 28.8966V2.98087C22.6247 2.7437 22.7189 2.51624 22.8866 2.34854C23.0543 2.18083 23.2818 2.08661 23.519 2.08661H35.1891ZM35.1891 0H23.519C22.7284 0 21.9702 0.314053 21.4112 0.873075C20.8521 1.4321 20.5381 2.1903 20.5381 2.98087V28.8966C20.5381 29.6871 20.8521 30.4453 21.4112 31.0044C21.9702 31.5634 22.7284 31.8774 23.519 31.8774H35.1891C35.9796 31.8774 36.7378 31.5634 37.2969 31.0044C37.8559 30.4453 38.1699 29.6871 38.1699 28.8966V2.98087C38.1699 2.1903 37.8559 1.4321 37.2969 0.873075C36.7378 0.314053 35.9796 0 35.1891 0Z" fill="white"/>
<path d="M55.7274 4.11963H44.0573C42.411 4.11963 41.0764 5.45421 41.0764 7.1005V33.0192C41.0764 34.6655 42.411 36.0001 44.0573 36.0001H55.7274C57.3737 36.0001 58.7083 34.6655 58.7083 33.0192V7.1005C58.7083 5.45421 57.3737 4.11963 55.7274 4.11963Z" fill="white"/>
<path d="M76.2655 0H64.5954C62.9491 0 61.6145 1.33458 61.6145 2.98087V28.8996C61.6145 30.5458 62.9491 31.8804 64.5954 31.8804H76.2655C77.9118 31.8804 79.2464 30.5458 79.2464 28.8996V2.98087C79.2464 1.33458 77.9118 0 76.2655 0Z" fill="white"/>
<path d="M90.1416 0.980713V13.554H87.2859V0.980713H90.1416Z" fill="white"/>
<path d="M97.4924 4.44755C97.9972 4.77038 98.393 5.23783 98.6281 5.78895V4.07495H101.466V13.5541H98.6281V11.8371C98.393 12.3882 97.9972 12.8557 97.4924 13.1785C96.9408 13.5195 96.3014 13.6915 95.6532 13.6733C94.922 13.681 94.2048 13.4737 93.5904 13.0772C92.9612 12.6611 92.463 12.075 92.1537 11.387C91.8074 10.5684 91.6289 9.68852 91.6289 8.79963C91.6289 7.91074 91.8074 7.03089 92.1537 6.21223C92.4649 5.52785 92.9629 4.94515 93.5904 4.53102C94.2047 4.13435 94.922 3.92703 95.6532 3.93484C96.3031 3.92341 96.9422 4.10157 97.4924 4.44755ZM95.1077 7.11543C94.7455 7.60788 94.5501 8.20321 94.5501 8.81453C94.5501 9.42585 94.7455 10.0212 95.1077 10.5136C95.3028 10.7071 95.5341 10.8602 95.7884 10.9641C96.0428 11.068 96.3152 11.1206 96.5899 11.1189C96.8647 11.1173 97.1364 11.0613 97.3895 10.9544C97.6425 10.8475 97.872 10.6916 98.0647 10.4957C98.4396 10.0138 98.6432 9.42064 98.6432 8.81005C98.6432 8.19947 98.4396 7.60631 98.0647 7.12437C97.8709 6.92969 97.6404 6.77522 97.3867 6.66982C97.133 6.56441 96.861 6.51016 96.5862 6.51016C96.3115 6.51016 96.0394 6.56441 95.7857 6.66982C95.532 6.77522 95.3016 6.92969 95.1077 7.12437V7.11543Z" fill="white"/>
<path d="M112.71 4.07495V13.5541H109.836V11.8371C109.575 12.3849 109.161 12.8455 108.644 13.1636C108.088 13.499 107.448 13.6696 106.799 13.6555C106.32 13.6764 105.842 13.5895 105.401 13.4012C104.96 13.2129 104.566 12.928 104.25 12.5675C103.622 11.8441 103.308 10.8505 103.308 9.58658V4.07495H106.146V9.21993C106.111 9.76666 106.288 10.3057 106.641 10.7253C106.811 10.9043 107.017 11.0446 107.246 11.1367C107.475 11.2288 107.721 11.2704 107.967 11.2589C108.223 11.272 108.478 11.2286 108.715 11.1318C108.952 11.0349 109.165 10.8869 109.338 10.6984C109.698 10.2479 109.877 9.67911 109.839 9.10368V4.07495H112.71Z" fill="white"/>
<path d="M123.14 5.05861C123.768 5.78396 124.083 6.77758 124.085 8.03949V13.5452H121.229V8.38825C121.263 7.8462 121.085 7.31217 120.734 6.89782C120.567 6.71995 120.363 6.58024 120.137 6.48816C119.91 6.3961 119.667 6.35383 119.423 6.36424C119.166 6.35342 118.911 6.39786 118.673 6.49455C118.436 6.59124 118.222 6.73793 118.046 6.92464C117.68 7.37358 117.498 7.9445 117.536 8.52239V13.5511H114.68V4.07195H117.53V5.80383C117.787 5.24902 118.201 4.78237 118.722 4.46244C119.283 4.12316 119.93 3.95146 120.585 3.96761C121.066 3.94592 121.545 4.03274 121.987 4.22162C122.429 4.41049 122.823 4.69657 123.14 5.05861Z" fill="white"/>
<path d="M133.206 4.96607C134.039 5.67482 134.584 6.66241 134.741 7.74425H131.719C131.659 7.36842 131.462 7.02814 131.166 6.78918C130.869 6.55023 130.495 6.42958 130.115 6.45055C129.877 6.44613 129.64 6.49777 129.426 6.60132C129.211 6.70487 129.023 6.85744 128.878 7.04673C128.562 7.57842 128.395 8.18546 128.395 8.80395C128.395 9.42243 128.562 10.0295 128.878 10.5612C129.023 10.7505 129.211 10.903 129.426 11.0066C129.64 11.1101 129.877 11.1618 130.115 11.1573C130.495 11.1719 130.868 11.0515 131.167 10.8175C131.455 10.5733 131.65 10.2375 131.719 9.86663H134.741C134.584 10.9477 134.039 11.9343 133.206 12.6418C132.353 13.3318 131.28 13.6915 130.184 13.6553C129.335 13.6686 128.497 13.4633 127.751 13.0591C127.045 12.6684 126.467 12.0814 126.088 11.369C125.696 10.5628 125.492 9.67808 125.492 8.78159C125.492 7.88509 125.696 7.00034 126.088 6.19419C126.464 5.48242 127.041 4.89754 127.748 4.51299C128.498 4.10949 129.338 3.90427 130.19 3.91681C131.288 3.89341 132.359 4.2658 133.206 4.96607Z" fill="white"/>
<path d="M144.691 5.05854C145.321 5.78389 145.635 6.77751 145.633 8.03942V13.5451H142.778V8.38818C142.811 7.84669 142.635 7.31316 142.286 6.89775C142.118 6.72019 141.914 6.58069 141.688 6.48864C141.462 6.39659 141.218 6.35415 140.974 6.36417C140.718 6.35291 140.461 6.39714 140.223 6.49385C139.985 6.59056 139.77 6.73747 139.594 6.92457C139.228 7.37351 139.046 7.94443 139.084 8.52232V13.551H136.229V0.980713H139.084V5.80675C139.342 5.25252 139.757 4.7861 140.277 4.46535C140.838 4.12607 141.484 3.95438 142.14 3.97053C142.619 3.94935 143.098 4.03612 143.539 4.22443C143.981 4.41274 144.375 4.69778 144.691 5.05854Z" fill="white"/>
<path d="M102.068 22.5502C102.724 23.2716 103.053 24.2712 103.055 25.549V31.0547H100.214V25.8888C100.246 25.3772 100.074 24.8738 99.737 24.4878C99.5688 24.3179 99.3666 24.1854 99.1437 24.0991C98.9207 24.0128 98.682 23.9746 98.4433 23.987C98.1941 23.9744 97.945 24.0155 97.7131 24.1076C97.4811 24.1996 97.2717 24.3405 97.0989 24.5206C96.7524 24.9373 96.5767 25.4699 96.6071 26.011V31.0547H93.7484V25.8888C93.78 25.3788 93.6122 24.8765 93.2804 24.4878C93.1143 24.3176 92.9137 24.1849 92.6922 24.0985C92.4706 24.0122 92.2331 23.9742 91.9957 23.987C91.746 23.975 91.4965 24.0155 91.2634 24.1059C91.0303 24.1962 90.8187 24.3345 90.6424 24.5116C90.2841 24.9316 90.1043 25.4751 90.1416 26.0259V31.0547H87.2859V21.5755H90.1416V23.1911C90.3792 22.6661 90.7726 22.2269 91.2683 21.9332C91.8107 21.6179 92.4297 21.459 93.0569 21.4741C93.7203 21.461 94.3741 21.6345 94.9437 21.9749C95.494 22.3153 95.9259 22.817 96.1808 23.4117C96.4926 22.8342 96.9499 22.3482 97.5073 22.0017C98.0651 21.6514 98.7117 21.4683 99.3704 21.4741C100.513 21.4721 101.412 21.8309 102.068 22.5502Z" fill="white"/>
<path d="M110.337 21.9482C110.844 22.2689 111.24 22.737 111.473 23.2896V21.5756H114.313V31.0548H111.473V29.3259C111.24 29.8785 110.844 30.3466 110.337 30.6673C109.786 31.0069 109.148 31.1788 108.501 31.1621C107.77 31.1703 107.052 30.9629 106.438 30.5659C105.808 30.1506 105.31 29.5643 105.001 28.8758C104.653 28.0576 104.474 27.1776 104.474 26.2884C104.474 25.3992 104.653 24.5192 105.001 23.701C105.312 23.016 105.81 22.433 106.438 22.0198C107.052 21.6228 107.77 21.4154 108.501 21.4236C109.151 21.4156 109.789 21.598 110.337 21.9482ZM107.952 24.631C107.589 25.1223 107.392 25.7174 107.392 26.3286C107.392 26.9399 107.589 27.535 107.952 28.0262C108.146 28.2221 108.377 28.3773 108.631 28.4828C108.886 28.5883 109.158 28.642 109.434 28.6406C109.709 28.6392 109.982 28.5828 110.235 28.4748C110.488 28.3667 110.718 28.2091 110.909 28.0113C111.282 27.5281 111.485 26.9347 111.485 26.3241C111.485 25.7136 111.282 25.1202 110.909 24.637C110.72 24.4324 110.489 24.2711 110.232 24.1641C109.975 24.0571 109.697 24.0069 109.419 24.017C109.144 24.004 108.869 24.0508 108.614 24.1543C108.359 24.2577 108.129 24.4153 107.94 24.6161L107.952 24.631Z" fill="white"/>
<path d="M121.563 28.5568V31.0547H120.275C119.184 31.0547 118.335 30.7775 117.73 30.229C117.124 29.6806 116.817 28.7714 116.817 27.5015V24.0199H115.565V21.5756H116.817V19.2505H119.676V21.5756H121.545V24.0229H119.676V27.5582C119.644 27.6946 119.646 27.8371 119.684 27.9723C119.721 28.1075 119.793 28.2309 119.891 28.331C119.989 28.4311 120.111 28.5046 120.246 28.5446C120.38 28.5846 120.523 28.5898 120.66 28.5597L121.563 28.5568Z" fill="white"/>
<path d="M123.366 17.8106C123.717 17.5308 124.153 17.3784 124.602 17.3784C125.051 17.3784 125.486 17.5308 125.837 17.8106C125.99 17.9489 126.111 18.1185 126.192 18.3079C126.272 18.4972 126.311 18.7018 126.305 18.9076C126.31 19.1105 126.27 19.312 126.189 19.4982C126.109 19.6845 125.989 19.8511 125.837 19.9866C125.486 20.2665 125.051 20.4188 124.602 20.4188C124.153 20.4188 123.717 20.2665 123.366 19.9866C123.216 19.8507 123.096 19.684 123.015 19.4979C122.935 19.3117 122.895 19.1104 122.898 18.9076C122.893 18.7019 122.933 18.4976 123.013 18.3083C123.094 18.1191 123.215 17.9494 123.366 17.8106ZM126.022 21.5754V31.0546H123.167V21.5754H126.022Z" fill="white"/>
<path d="M135.227 22.4697C136.059 23.1772 136.605 24.1639 136.762 25.2449H133.74C133.671 24.874 133.476 24.5382 133.188 24.294C132.888 24.0622 132.515 23.9439 132.136 23.9602C131.898 23.9557 131.661 24.0074 131.446 24.1109C131.232 24.2145 131.044 24.3671 130.899 24.5563C130.583 25.088 130.416 25.6951 130.416 26.3136C130.416 26.9321 130.583 27.5391 130.899 28.0708C131.044 28.2601 131.232 28.4126 131.446 28.5162C131.661 28.6197 131.898 28.6714 132.136 28.667C132.516 28.6815 132.889 28.5611 133.188 28.3271C133.476 28.0829 133.671 27.7471 133.74 27.3762H136.762C136.605 28.4573 136.059 29.444 135.227 30.1514C134.373 30.84 133.301 31.1996 132.205 31.1649C131.356 31.1782 130.518 30.9729 129.772 30.5688C129.066 30.1791 128.489 29.5917 128.112 28.8786C127.698 28.0824 127.493 27.1942 127.516 26.2972C127.493 25.3964 127.698 24.5045 128.112 23.7038C128.488 22.992 129.065 22.4071 129.772 22.0226C130.522 21.6191 131.362 21.4139 132.213 21.4264C133.311 21.4021 134.38 21.7723 135.227 22.4697Z" fill="white"/>
</svg>
