<svg width="74" height="58" viewBox="0 0 74 58" fill="none" xmlns="http://www.w3.org/2000/svg">
<path fill-rule="evenodd" clip-rule="evenodd" d="M37 16.2603C40.6617 16.2603 43.6301 13.2919 43.6301 9.63014C43.6301 5.96841 40.6617 3 37 3C33.3383 3 30.3699 5.96841 30.3699 9.63014C30.3699 13.2919 33.3383 16.2603 37 16.2603ZM37 19.2603C42.3186 19.2603 46.6301 14.9487 46.6301 9.63014C46.6301 4.31156 42.3186 0 37 0C31.6814 0 27.3699 4.31156 27.3699 9.63014C27.3699 14.9487 31.6814 19.2603 37 19.2603Z" fill="#3600AA"/>
<path fill-rule="evenodd" clip-rule="evenodd" d="M65.8696 25.8699H8.12988V32.4384H11.1299V28.8699H35.5V32.1849H38.5V28.8699H62.8696V32.4384H65.8696V25.8699Z" fill="#3600AA"/>
<path fill-rule="evenodd" clip-rule="evenodd" d="M37 54.5275C40.6617 54.5275 43.6301 51.5591 43.6301 47.8973C43.6301 44.2356 40.6617 41.2672 37 41.2672C33.3383 41.2672 30.3699 44.2356 30.3699 47.8973C30.3699 51.5591 33.3383 54.5275 37 54.5275ZM37 57.5275C42.3186 57.5275 46.6301 53.2159 46.6301 47.8973C46.6301 42.5788 42.3186 38.2672 37 38.2672C31.6814 38.2672 27.3699 42.5788 27.3699 47.8973C27.3699 53.2159 31.6814 57.5275 37 57.5275Z" fill="#3600AA"/>
<path fill-rule="evenodd" clip-rule="evenodd" d="M9.63014 54.5275C13.2919 54.5275 16.2603 51.5591 16.2603 47.8973C16.2603 44.2356 13.2919 41.2672 9.63014 41.2672C5.96841 41.2672 3 44.2356 3 47.8973C3 51.5591 5.96841 54.5275 9.63014 54.5275ZM9.63014 57.5275C14.9487 57.5275 19.2603 53.2159 19.2603 47.8973C19.2603 42.5788 14.9487 38.2672 9.63014 38.2672C4.31156 38.2672 0 42.5788 0 47.8973C0 53.2159 4.31156 57.5275 9.63014 57.5275Z" fill="#3600AA"/>
<path fill-rule="evenodd" clip-rule="evenodd" d="M64.3699 54.5275C68.0316 54.5275 71 51.5591 71 47.8973C71 44.2356 68.0316 41.2672 64.3699 41.2672C60.7082 41.2672 57.7397 44.2356 57.7397 47.8973C57.7397 51.5591 60.7082 54.5275 64.3699 54.5275ZM64.3699 57.5275C69.6885 57.5275 74 53.2159 74 47.8973C74 42.5788 69.6885 38.2672 64.3699 38.2672C59.0513 38.2672 54.7397 42.5788 54.7397 47.8973C54.7397 53.2159 59.0513 57.5275 64.3699 57.5275Z" fill="#3600AA"/>
</svg>
