<svg width="64" height="68" viewBox="0 0 64 68" fill="none" xmlns="http://www.w3.org/2000/svg">
<path d="M58.7604 4.4247C59.1117 4.4247 59.4487 4.56429 59.6972 4.81275C59.9457 5.06121 60.0852 5.39819 60.0852 5.74956V47.0423C60.0852 47.3937 59.9457 47.7307 59.6972 47.9791C59.4487 48.2276 59.1117 48.3672 58.7604 48.3672H40.1658C39.8144 48.3672 39.4775 48.2276 39.229 47.9791C38.9805 47.7307 38.841 47.3937 38.841 47.0423V5.74956C38.841 5.39819 38.9805 5.06121 39.229 4.81275C39.4775 4.56428 39.8144 4.4247 40.1658 4.4247H58.7604ZM58.7604 0.9H40.1658C38.8796 0.9 37.6461 1.41093 36.7367 2.3204C35.8272 3.22987 35.3163 4.46338 35.3163 5.74956V47.0423C35.3163 48.3285 35.8272 49.562 36.7367 50.4714C37.6461 51.3809 38.8796 51.8918 40.1658 51.8918H58.7604C60.0466 51.8918 61.2801 51.3809 62.1895 50.4714C63.099 49.562 63.6099 48.3285 63.6099 47.0423V5.74956C63.6099 4.46338 63.099 3.22987 62.1895 2.3204C61.2801 1.41093 60.0466 0.9 58.7604 0.9Z" fill="#3600AA" stroke="#6312FF" stroke-width="0.2"/>
<mask id="path-2-outside-1" maskUnits="userSpaceOnUse" x="0" y="16" width="30" height="52" fill="black">
<rect fill="white" y="16" width="30" height="52"/>
<path fill-rule="evenodd" clip-rule="evenodd" d="M20 17H5.74956C4.4899 17 3.28183 17.5004 2.39111 18.3911C1.5004 19.2818 1 20.4899 1 21.7496V63.0423C1 64.3019 1.5004 65.51 2.39111 66.4007C3.28183 67.2914 4.4899 67.7918 5.74956 67.7918H24.3441C25.6038 67.7918 26.8118 67.2914 27.7026 66.4007C28.5933 65.51 29.0937 64.3019 29.0937 63.0423V57H25.769V63.0423C25.769 63.4202 25.6189 63.7826 25.3517 64.0498C25.0844 64.317 24.722 64.4672 24.3441 64.4672H5.74956C5.37167 64.4672 5.00925 64.317 4.74204 64.0498C4.47482 63.7826 4.3247 63.4202 4.3247 63.0423V21.7496C4.3247 21.3717 4.47482 21.0093 4.74204 20.742C5.00925 20.4748 5.37167 20.3247 5.74956 20.3247H20V17Z"/>
</mask>
<path fill-rule="evenodd" clip-rule="evenodd" d="M20 17H5.74956C4.4899 17 3.28183 17.5004 2.39111 18.3911C1.5004 19.2818 1 20.4899 1 21.7496V63.0423C1 64.3019 1.5004 65.51 2.39111 66.4007C3.28183 67.2914 4.4899 67.7918 5.74956 67.7918H24.3441C25.6038 67.7918 26.8118 67.2914 27.7026 66.4007C28.5933 65.51 29.0937 64.3019 29.0937 63.0423V57H25.769V63.0423C25.769 63.4202 25.6189 63.7826 25.3517 64.0498C25.0844 64.317 24.722 64.4672 24.3441 64.4672H5.74956C5.37167 64.4672 5.00925 64.317 4.74204 64.0498C4.47482 63.7826 4.3247 63.4202 4.3247 63.0423V21.7496C4.3247 21.3717 4.47482 21.0093 4.74204 20.742C5.00925 20.4748 5.37167 20.3247 5.74956 20.3247H20V17Z" fill="#3600AA"/>
<path d="M20 17H20.2V16.8H20V17ZM29.0937 57H29.2937V56.8H29.0937V57ZM25.769 57V56.8H25.569V57H25.769ZM4.74204 64.0498L4.60061 64.1912L4.74204 64.0498ZM4.74204 20.742L4.60061 20.6006L4.74204 20.742ZM20 20.3247V20.5247H20.2V20.3247H20ZM20 16.8H5.74956V17.2H20V16.8ZM5.74956 16.8C4.43686 16.8 3.17791 17.3215 2.24969 18.2497L2.53253 18.5325C3.38574 17.6793 4.54294 17.2 5.74956 17.2V16.8ZM2.24969 18.2497C1.32147 19.1779 0.8 20.4369 0.8 21.7496H1.2C1.2 20.5429 1.67932 19.3857 2.53253 18.5325L2.24969 18.2497ZM0.8 21.7496V63.0423H1.2V21.7496H0.8ZM0.8 63.0423C0.8 64.355 1.32147 65.6139 2.24969 66.5421L2.53253 66.2593C1.67932 65.4061 1.2 64.2489 1.2 63.0423H0.8ZM2.24969 66.5421C3.17791 67.4704 4.43686 67.9918 5.74956 67.9918V67.5918C4.54295 67.5918 3.38574 67.1125 2.53253 66.2593L2.24969 66.5421ZM5.74956 67.9918H24.3441V67.5918H5.74956V67.9918ZM24.3441 67.9918C25.6568 67.9918 26.9158 67.4704 27.844 66.5421L27.5611 66.2593C26.7079 67.1125 25.5507 67.5918 24.3441 67.5918V67.9918ZM27.844 66.5421C28.7722 65.6139 29.2937 64.355 29.2937 63.0423H28.8937C28.8937 64.2489 28.4143 65.4061 27.5611 66.2593L27.844 66.5421ZM29.2937 63.0423V57H28.8937V63.0423H29.2937ZM29.0937 56.8H25.769V57.2H29.0937V56.8ZM25.569 57V63.0423H25.969V57H25.569ZM25.569 63.0423C25.569 63.3671 25.4399 63.6787 25.2102 63.9084L25.4931 64.1912C25.7978 63.8865 25.969 63.4732 25.969 63.0423H25.569ZM25.2102 63.9084C24.9805 64.1381 24.669 64.2672 24.3441 64.2672V64.6672C24.775 64.6672 25.1883 64.496 25.4931 64.1912L25.2102 63.9084ZM24.3441 64.2672H5.74956V64.6672H24.3441V64.2672ZM5.74956 64.2672C5.42471 64.2672 5.11316 64.1381 4.88346 63.9084L4.60061 64.1912C4.90534 64.496 5.31863 64.6672 5.74956 64.6672V64.2672ZM4.88346 63.9084C4.65375 63.6787 4.5247 63.3671 4.5247 63.0423H4.1247C4.1247 63.4732 4.29589 63.8865 4.60061 64.1912L4.88346 63.9084ZM4.5247 63.0423V21.7496H4.1247V63.0423H4.5247ZM4.5247 21.7496C4.5247 21.4247 4.65375 21.1132 4.88346 20.8835L4.60061 20.6006C4.29589 20.9053 4.1247 21.3186 4.1247 21.7496H4.5247ZM4.88346 20.8835C5.11317 20.6537 5.42471 20.5247 5.74956 20.5247V20.1247C5.31862 20.1247 4.90533 20.2959 4.60061 20.6006L4.88346 20.8835ZM5.74956 20.5247H20V20.1247H5.74956V20.5247ZM20.2 20.3247V17H19.8V20.3247H20.2Z" fill="#6312FF" mask="url(#path-2-outside-1)"/>
<mask id="path-4-outside-2" maskUnits="userSpaceOnUse" x="17.4163" y="8" width="30" height="52" fill="black">
<rect fill="white" x="17.4163" y="8" width="30" height="52"/>
<path fill-rule="evenodd" clip-rule="evenodd" d="M38 9H23.1658C21.9062 9 20.6981 9.5004 19.8074 10.3911C18.9167 11.2818 18.4163 12.4899 18.4163 13.7496V55.0423C18.4163 56.3019 18.9167 57.51 19.8074 58.4007C20.6981 59.2914 21.9062 59.7918 23.1658 59.7918H41.7604C43.02 59.7918 44.2281 59.2914 45.1188 58.4007C46.0095 57.51 46.5099 56.3019 46.5099 55.0423V49H43.1852V55.0423C43.1852 55.4202 43.0351 55.7826 42.7679 56.0498C42.5007 56.317 42.1383 56.4672 41.7604 56.4672H23.1658C22.7879 56.4672 22.4255 56.317 22.1583 56.0498C21.8911 55.7826 21.741 55.4202 21.741 55.0423V13.7496C21.741 13.3717 21.8911 13.0093 22.1583 12.742C22.4255 12.4748 22.7879 12.3247 23.1658 12.3247H38V9Z"/>
</mask>
<path fill-rule="evenodd" clip-rule="evenodd" d="M38 9H23.1658C21.9062 9 20.6981 9.5004 19.8074 10.3911C18.9167 11.2818 18.4163 12.4899 18.4163 13.7496V55.0423C18.4163 56.3019 18.9167 57.51 19.8074 58.4007C20.6981 59.2914 21.9062 59.7918 23.1658 59.7918H41.7604C43.02 59.7918 44.2281 59.2914 45.1188 58.4007C46.0095 57.51 46.5099 56.3019 46.5099 55.0423V49H43.1852V55.0423C43.1852 55.4202 43.0351 55.7826 42.7679 56.0498C42.5007 56.317 42.1383 56.4672 41.7604 56.4672H23.1658C22.7879 56.4672 22.4255 56.317 22.1583 56.0498C21.8911 55.7826 21.741 55.4202 21.741 55.0423V13.7496C21.741 13.3717 21.8911 13.0093 22.1583 12.742C22.4255 12.4748 22.7879 12.3247 23.1658 12.3247H38V9Z" fill="#3600AA"/>
<path d="M38 9H38.2V8.8H38V9ZM19.8074 10.3911L19.9488 10.5325L19.8074 10.3911ZM19.8074 58.4007L19.9488 58.2593L19.8074 58.4007ZM45.1188 58.4007L44.9774 58.2593L45.1188 58.4007ZM46.5099 49H46.7099V48.8H46.5099V49ZM43.1852 49V48.8H42.9852V49H43.1852ZM42.7679 56.0498L42.9093 56.1912H42.9093L42.7679 56.0498ZM22.1583 56.0498L22.0169 56.1912H22.0169L22.1583 56.0498ZM22.1583 12.742L22.0169 12.6006L22.1583 12.742ZM38 12.3247V12.5247H38.2V12.3247H38ZM38 8.8H23.1658V9.2H38V8.8ZM23.1658 8.8C21.8531 8.8 20.5942 9.32147 19.666 10.2497L19.9488 10.5325C20.802 9.67932 21.9592 9.2 23.1658 9.2V8.8ZM19.666 10.2497C18.7377 11.1779 18.2163 12.4369 18.2163 13.7496H18.6163C18.6163 12.5429 19.0956 11.3857 19.9488 10.5325L19.666 10.2497ZM18.2163 13.7496V55.0423H18.6163V13.7496H18.2163ZM18.2163 55.0423C18.2163 56.355 18.7377 57.6139 19.666 58.5421L19.9488 58.2593C19.0956 57.4061 18.6163 56.2489 18.6163 55.0423H18.2163ZM19.666 58.5421C20.5942 59.4704 21.8531 59.9918 23.1658 59.9918V59.5918C21.9592 59.5918 20.802 59.1125 19.9488 58.2593L19.666 58.5421ZM23.1658 59.9918H41.7604V59.5918H23.1658V59.9918ZM41.7604 59.9918C43.0731 59.9918 44.332 59.4704 45.2602 58.5421L44.9774 58.2593C44.1242 59.1125 42.967 59.5918 41.7604 59.5918V59.9918ZM45.2602 58.5421C46.1885 57.6139 46.7099 56.355 46.7099 55.0423H46.3099C46.3099 56.2489 45.8306 57.4061 44.9774 58.2593L45.2602 58.5421ZM46.7099 55.0423V49H46.3099V55.0423H46.7099ZM46.5099 48.8H43.1852V49.2H46.5099V48.8ZM42.9852 49V55.0423H43.3852V49H42.9852ZM42.9852 55.0423C42.9852 55.3671 42.8562 55.6787 42.6265 55.9084L42.9093 56.1912C43.2141 55.8865 43.3852 55.4732 43.3852 55.0423H42.9852ZM42.6265 55.9084C42.3968 56.1381 42.0852 56.2672 41.7604 56.2672V56.6672C42.1913 56.6672 42.6046 56.496 42.9093 56.1912L42.6265 55.9084ZM41.7604 56.2672H23.1658V56.6672H41.7604V56.2672ZM23.1658 56.2672C22.841 56.2672 22.5294 56.1381 22.2997 55.9084L22.0169 56.1912C22.3216 56.496 22.7349 56.6672 23.1658 56.6672V56.2672ZM22.2997 55.9084C22.07 55.6787 21.941 55.3671 21.941 55.0423H21.541C21.541 55.4732 21.7122 55.8865 22.0169 56.1912L22.2997 55.9084ZM21.941 55.0423V13.7496H21.541V55.0423H21.941ZM21.941 13.7496C21.941 13.4247 22.07 13.1132 22.2997 12.8835L22.0169 12.6006C21.7122 12.9053 21.541 13.3186 21.541 13.7496H21.941ZM22.2997 12.8835C22.5294 12.6537 22.841 12.5247 23.1658 12.5247V12.1247C22.7349 12.1247 22.3216 12.2959 22.0169 12.6006L22.2997 12.8835ZM23.1658 12.5247H38V12.1247H23.1658V12.5247ZM38.2 12.3247V9H37.8V12.3247H38.2Z" fill="#6312FF" mask="url(#path-4-outside-2)"/>
</svg>
