<svg width="32" height="26" viewBox="0 0 32 26" fill="none" xmlns="http://www.w3.org/2000/svg">
<path d="M30.7596 3.02461C30.0651 3.33256 29.3442 3.57551 28.6044 3.7514C29.4195 2.97682 30.0324 2.008 30.3782 0.926609C30.4769 0.617892 30.1415 0.350936 29.8628 0.516231C28.8337 1.12665 27.7251 1.58459 26.5679 1.87745C26.5008 1.89445 26.4315 1.90306 26.362 1.90306C26.1512 1.90306 25.9463 1.82479 25.7851 1.68274C24.5539 0.59762 22.9704 0 21.3264 0C20.615 0 19.8967 0.110882 19.1915 0.329598C17.0065 1.00731 15.3205 2.8097 14.7916 5.03344C14.5931 5.86753 14.5394 6.70239 14.6318 7.51476C14.6423 7.60812 14.5982 7.67327 14.571 7.70383C14.5232 7.75741 14.4555 7.78812 14.3851 7.78812C14.3773 7.78812 14.3692 7.78774 14.3612 7.78698C9.57827 7.34261 5.26522 5.03832 2.21653 1.29865C2.06107 1.10791 1.76295 1.1313 1.63903 1.34385C1.04202 2.36808 0.726522 3.53954 0.726522 4.73158C0.726522 6.55843 1.46048 8.28004 2.73536 9.5351C2.19923 9.40799 1.68034 9.20779 1.19832 8.94007C0.965128 8.81052 0.678206 8.97703 0.674929 9.24376C0.64155 11.9577 2.23048 14.3725 4.61075 15.4599C4.56282 15.4611 4.51488 15.4616 4.46687 15.4616C4.08957 15.4616 3.70754 15.4252 3.33153 15.3533C3.06892 15.3032 2.8483 15.5523 2.92984 15.8069C3.70243 18.219 5.77924 19.9969 8.26453 20.4006C6.20189 21.7852 3.7999 22.5156 1.29991 22.5156L0.520532 22.5151C0.280402 22.5151 0.0773086 22.6716 0.0161138 22.9042C-0.0441664 23.1333 0.0668681 23.375 0.271638 23.4941C3.08873 25.1335 6.30203 26 9.56555 26C12.4222 26 15.0943 25.4331 17.5078 24.3151C19.7204 23.2902 21.6756 21.8251 23.3191 19.9605C24.8501 18.2236 26.0473 16.2185 26.8773 14.001C27.6686 11.8873 28.0868 9.63181 28.0868 7.47849V7.37591C28.0868 7.03016 28.2431 6.70483 28.516 6.48337C29.5512 5.6428 30.4528 4.65332 31.1954 3.54244C31.3915 3.24911 31.0822 2.88149 30.7596 3.02461Z" fill="#8766CC"/>
</svg>
