<svg width="32" height="26" viewBox="0 0 32 26" fill="none" xmlns="http://www.w3.org/2000/svg">
<path d="M30.7598 3.02461C30.0653 3.33256 29.3444 3.57551 28.6047 3.7514C29.4198 2.97682 30.0327 2.008 30.3784 0.926609C30.4771 0.617892 30.1418 0.350936 29.863 0.516231C28.8339 1.12665 27.7254 1.58459 26.5682 1.87745C26.501 1.89445 26.4318 1.90306 26.3623 1.90306C26.1515 1.90306 25.9466 1.82479 25.7854 1.68274C24.5542 0.59762 22.9706 0 21.3266 0C20.6152 0 19.897 0.110882 19.1917 0.329598C17.0067 1.00731 15.3208 2.8097 14.7918 5.03344C14.5934 5.86753 14.5396 6.70239 14.632 7.51476C14.6426 7.60812 14.5985 7.67327 14.5713 7.70383C14.5235 7.75741 14.4557 7.78812 14.3854 7.78812C14.3775 7.78812 14.3695 7.78774 14.3615 7.78698C9.57852 7.34261 5.26547 5.03832 2.21678 1.29865C2.06131 1.10791 1.76319 1.1313 1.63928 1.34385C1.04227 2.36808 0.726766 3.53954 0.726766 4.73158C0.726766 6.55843 1.46072 8.28004 2.7356 9.5351C2.19948 9.40799 1.68058 9.20779 1.19857 8.94007C0.965372 8.81052 0.67845 8.97703 0.675173 9.24376C0.641794 11.9577 2.23072 14.3725 4.61099 15.4599C4.56306 15.4611 4.51513 15.4616 4.46711 15.4616C4.08981 15.4616 3.70778 15.4252 3.33177 15.3533C3.06916 15.3032 2.84854 15.5523 2.93008 15.8069C3.70268 18.219 5.77949 19.9969 8.26477 20.4006C6.20213 21.7852 3.80015 22.5156 1.30015 22.5156L0.520777 22.5151C0.280646 22.5151 0.0775527 22.6716 0.016358 22.9042C-0.0439223 23.1333 0.0671123 23.375 0.271882 23.4941C3.08898 25.1335 6.30227 26 9.56579 26C12.4224 26 15.0946 25.4331 17.5081 24.3151C19.7206 23.2902 21.6758 21.8251 23.3193 19.9605C24.8503 18.2236 26.0475 16.2185 26.8776 14.001C27.6688 11.8873 28.0871 9.63181 28.0871 7.47849V7.37591C28.087 7.03016 28.2434 6.70483 28.5162 6.48337C29.5515 5.6428 30.453 4.65332 31.1957 3.54244C31.3917 3.24911 31.0825 2.88149 30.7598 3.02461Z" fill="white"/>
</svg>
