<svg width="70" height="70" viewBox="0 0 70 70" fill="none" xmlns="http://www.w3.org/2000/svg">
<path d="M46.6211 61.7969L57.5586 70V61.7969H70V24.7461H45.2539V0H0V37.0508H12.4414V45.2539L23.3789 37.0508H24.7461V61.7969H46.6211ZM65.8984 57.6953H53.457V61.7969L47.9883 57.6953H28.8477V28.8477H65.8984V57.6953ZM22.0117 32.9492L16.543 37.0508V32.9492H4.10156V4.10156H41.1523V24.7461H32.1658L22.6953 5.80521L12.6577 25.8799L16.3261 27.7144L18.8357 22.6953H26.5549L27.5803 24.7461H24.7461V32.9492H22.0117ZM24.5042 18.5938H20.8865L22.6953 14.976L24.5042 18.5938Z" fill="#3600AA"/>
</svg>
